<?xml version="1.0" encoding="utf-8"?>
<!-- Generator: Adobe Illustrator 25.4.1, SVG Export Plug-In . SVG Version: 6.00 Build 0)  -->
<svg version="1.1" id="Layer_1" xmlns="http://www.w3.org/2000/svg" xmlns:xlink="http://www.w3.org/1999/xlink" x="0px" y="0px"
	 viewBox="0 0 1080 1158" style="enable-background:new 0 0 1080 1158;" xml:space="preserve">
<style type="text/css">
	.st0{fill:#55B279;}
	.st1{font-family:'DINAlternate-Bold';}
	.st2{font-size:35px;}
	.st3{fill:#FFFFFF;}
	.st4{font-family:'Arial-ItalicMT';}
	.st5{font-size:20px;}
	.st6{font-family:'ArialMT';}
	.st7{fill:#507A12;}
	.st8{fill:none;stroke:#F7931E;stroke-miterlimit:10;}
	.st9{fill:none;stroke:#FFFFFF;stroke-miterlimit:10;}
	.st10{font-size:30px;}
	.st11{fill:url(#SVGID_1_);}
	.st12{fill:url(#SVGID_00000026130509925715314230000001970090555344548029_);}
	.st13{fill:url(#SVGID_00000023243004431275310790000005927490370010860977_);}
	.st14{fill:#C69C6D;}
	.st15{fill:#BBD00A;}
</style>
<path class="st0" d="M1057.4,1129H518.6c-7,0-12.6-5.6-12.6-12.6V848.6c0-7,5.6-12.6,12.6-12.6h538.8c7,0,12.6,5.6,12.6,12.6v267.8
	C1070,1123.4,1064.4,1129,1057.4,1129z"/>
<text transform="matrix(1 0 0 1 569.998 886.9336)" class="st1 st2">View Your Progress</text>
<text transform="matrix(1 0 0 1 570.2686 1032.8066)" class="st1 st2">View Your Badges</text>
<text transform="matrix(1 0 0 1 828.7153 1071.3687)" class="st3 st4 st5">Badges are coming soon</text>
<text transform="matrix(1 0 0 1 828.7153 1095.3687)" class="st3 st4 st5">stay tuned! </text>
<text transform="matrix(1 0 0 1 665.7153 943.3687)" class="st3 st6 st5">View Achieved Goals</text>
<circle class="st3" cx="806.5" cy="1075.5" r="4.5"/>
<circle class="st7" cx="543" cy="877" r="9"/>
<circle class="st7" cx="542" cy="1023" r="9"/>
<line class="st8" x1="543" y1="877" x2="542" y2="1023"/>
<g>
	<path class="st0" d="M558.4,305H19.6c-7,0-12.6-5.6-12.6-12.6V24.6c0-7,5.6-12.6,12.6-12.6h538.8c7,0,12.6,5.6,12.6,12.6v267.8
		C571,299.4,565.4,305,558.4,305z"/>
	<text transform="matrix(1 0 0 1 94.0151 231.71)" class="st1 st2">Login</text>
	<text transform="matrix(1 0 0 1 76.6035 96.6201)" class="st1 st2">Create an Account</text>
	<text transform="matrix(1 0 0 1 149.8535 155.3403)" class="st3 st6 st5">Join us and start making an impact </text>
	<text transform="matrix(1 0 0 1 149.8535 179.3403)" class="st3 st6 st5">to make earth a greener planet!</text>
	<circle class="st7" cx="58" cy="88" r="9"/>
	<circle class="st3" cx="134.5" cy="150.5" r="4.5"/>
	<circle class="st7" cx="72" cy="221" r="9"/>
	<line class="st9" x1="58" y1="88" x2="72" y2="221"/>
	<line class="st8" x1="134" y1="150.5" x2="65" y2="150.5"/>
</g>
<polyline class="st8" points="748.2,1033.2 748.2,1075 802,1075 "/>
<g>
	<path class="st0" d="M919.3,778H195.7c-7,0-12.6-5.6-12.6-12.6V401.6c0-7,5.6-12.6,12.6-12.6h723.6c7,0,12.6,5.6,12.6,12.6v363.8
		C931.9,772.4,926.3,778,919.3,778z"/>
	<text transform="matrix(1 0 0 1 264.0977 443.3643)" class="st1 st2">Plant a Tree</text>
	<text transform="matrix(1 0 0 1 360.8599 516.5098)" class="st6 st10">Enter Tree Info</text>
	<text transform="matrix(1 0 0 1 410.5835 595.5454)" class="st6 st10">Add a File</text>
	<text transform="matrix(1 0 0 1 547.9717 712.0562)" class="st6 st10">Await Verification</text>
	<text transform="matrix(1 0 0 1 634.3228 619.5332)" class="st3 st6 st5">It can be an image or a video </text>
	<text transform="matrix(1 0 0 1 634.3228 643.5332)" class="st3 st6 st5">to prove you have planted a tree</text>
	<circle class="st3" cx="610.5" cy="623.5" r="4.5"/>
	<circle class="st7" cx="238" cy="435" r="9"/>
	<circle class="st7" cx="324" cy="507" r="8"/>
	<circle class="st7" cx="391" cy="587" r="8"/>
	<circle class="st7" cx="524" cy="703" r="8"/>
	<path class="st9" d="M383,585h-55.7c-1.8,0-3.3-1.5-3.3-3.3v-71.4c0-1.8-1.5-3.3-3.3-3.3h-79.4c-1.8,0-3.3-1.5-3.3-3.3V444v-9"/>
	<path class="st9" d="M391,588v112c0,1.7,1.3,3,3,3h130"/>
	<line class="st8" x1="606" y1="623.5" x2="390" y2="623.5"/>
</g>
<circle class="st3" cx="654.5" cy="938.5" r="4.5"/>
<line class="st8" x1="650" y1="938.5" x2="543" y2="938.5"/>
<linearGradient id="SVGID_1_" gradientUnits="userSpaceOnUse" x1="995.7366" y1="1561.8545" x2="1006.1207" y2="1641.7411" gradientTransform="matrix(1 0 0 1 0 -760)">
	<stop  offset="0" style="stop-color:#BBD00A"/>
	<stop  offset="2.343286e-02" style="stop-color:#B5CD0B;stop-opacity:0.9804"/>
	<stop  offset="0.209" style="stop-color:#8CB716;stop-opacity:0.8252"/>
	<stop  offset="0.3905" style="stop-color:#6CA51E;stop-opacity:0.6733"/>
	<stop  offset="0.5645" style="stop-color:#559924;stop-opacity:0.5277"/>
	<stop  offset="0.7278" style="stop-color:#479228;stop-opacity:0.391"/>
	<stop  offset="0.8696" style="stop-color:#428F29;stop-opacity:0.2724"/>
	<stop  offset="0.9298" style="stop-color:#006837;stop-opacity:0"/>
</linearGradient>
<circle class="st11" cx="1000.5" cy="838.5" r="36.5"/>
<linearGradient id="SVGID_00000158724186353529190180000002223624935379966105_" gradientUnits="userSpaceOnUse" x1="908.7346" y1="1115.8639" x2="919.1188" y2="1195.7505" gradientTransform="matrix(1 0 0 1 0 -760)">
	<stop  offset="0" style="stop-color:#BBD00A"/>
	<stop  offset="2.343286e-02" style="stop-color:#B5CD0B;stop-opacity:0.9804"/>
	<stop  offset="0.209" style="stop-color:#8CB716;stop-opacity:0.8252"/>
	<stop  offset="0.3905" style="stop-color:#6CA51E;stop-opacity:0.6733"/>
	<stop  offset="0.5645" style="stop-color:#559924;stop-opacity:0.5277"/>
	<stop  offset="0.7278" style="stop-color:#479228;stop-opacity:0.391"/>
	<stop  offset="0.8696" style="stop-color:#428F29;stop-opacity:0.2724"/>
	<stop  offset="0.9298" style="stop-color:#006837;stop-opacity:0"/>
</linearGradient>
<circle style="fill:url(#SVGID_00000158724186353529190180000002223624935379966105_);" cx="913.5" cy="392.5" r="36.5"/>
<linearGradient id="SVGID_00000075845602615064968880000017463275571134139301_" gradientUnits="userSpaceOnUse" x1="541.9674" y1="998.3163" x2="552.3516" y2="1078.203" gradientTransform="matrix(1 0 0 1 0 -760)">
	<stop  offset="0.1193" style="stop-color:#6CA51E;stop-opacity:0.6733"/>
	<stop  offset="0.6007" style="stop-color:#559924;stop-opacity:0.5277"/>
	<stop  offset="0.7278" style="stop-color:#479228;stop-opacity:0.391"/>
	<stop  offset="0.9243" style="stop-color:#428F29;stop-opacity:0.2724"/>
	<stop  offset="0.9298" style="stop-color:#006837;stop-opacity:0"/>
</linearGradient>
<circle style="fill:url(#SVGID_00000075845602615064968880000017463275571134139301_);" cx="546.7" cy="274.9" r="36.5"/>
<path class="st14" d="M1006.5,395.5v438c0,3.3-2.7,6-6,6l0,0c-3.3,0-6-2.7-6-6v-425c0-3.3-2.7-6-6-6h-77c-3.3,0-6-2.7-6-6v-109
	c0-3.3-2.7-6-6-6h-345c-3.3,0-6-2.7-6-6V273c0-3.3,2.7-6,6-6h357c3.3,0,6,2.7,6,6v110.5c0,3.3,2.7,6,6,6h77
	C1003.8,389.5,1006.5,392.2,1006.5,395.5z"/>
<path class="st15" d="M468.3,292h6.5c4,0,7.3,3.3,7.3,7.3v101.5c0,4-3.3,7.3-7.3,7.3h-6.5c-4,0-7.3-3.3-7.3-7.3V299.3
	C461,295.3,464.3,292,468.3,292z"/>
<path class="st15" d="M837.3,764h7.5c4,0,7.3,3.3,7.3,7.3v78.5c0,4-3.3,7.3-7.3,7.3h-7.5c-4,0-7.3-3.3-7.3-7.3v-78.5
	C830,767.3,833.3,764,837.3,764z"/>
</svg>
