<?xml version="1.0" encoding="utf-8"?>
<!-- Generator: Adobe Illustrator 25.4.1, SVG Export Plug-In . SVG Version: 6.00 Build 0)  -->
<svg version="1.1" id="Layer_1" xmlns="http://www.w3.org/2000/svg" xmlns:xlink="http://www.w3.org/1999/xlink" x="0px" y="0px"
	 viewBox="0 0 1920 1080" style="enable-background:new 0 0 1920 1080;" xml:space="preserve">
<style type="text/css">
	<!-- .st0{fill:#F4FFCC;} -->
	.st0{fill:rgba(49, 99, 44, 0.523);}
	.st1{fill:#006837;}
	.st2{fill:#8CC63F;}
	.st3{fill:#FFFFFF;stroke:#000000;stroke-miterlimit:10;}
	.st4{font-family:'Arial-BoldMT';}
	.st5{font-size:100px;}
	.st6{fill:#435700;}
	.st7{font-size:60px;}
</style>
<rect class="st0" width="1920" height="1080"/>
<path class="st1" d="M21.6,769.9c8.5-49.9,30.6-98,60.7-143s68.1-86.9,108.6-124.7c111.8-104.3,242-176.8,273.6-193.7
	c1.3-0.7,2.6,1,1.6,2.1L23.8,771C22.9,771.9,21.4,771.2,21.6,769.9z"/>
<path class="st2" d="M162.4,389.9v43.3c0,1.9,1.6,3.5,3.5,3.5h35.3c3,0,4.6-3.4,2.7-5.7l-35.3-43.3
	C166.5,385.2,162.4,386.6,162.4,389.9z"/>
<path class="st2" d="M526,677.2v43.3c0,1.9,1.6,3.5,3.5,3.5h35.3c3,0,4.6-3.4,2.7-5.7L532.2,675C530.1,672.4,526,673.9,526,677.2z"
	/>
<path class="st2" d="M312.7,558.7V602c0,1.9,1.6,3.5,3.5,3.5h35.3c3,0,4.6-3.4,2.7-5.7l-35.3-43.3
	C316.8,553.9,312.7,555.4,312.7,558.7z"/>
<path class="st2" d="M389.2,313.8l-43.3,1.7c-1.9,0.1-3.4,1.7-3.4,3.6l1.4,35.3c0.1,3,3.6,4.4,5.8,2.5l41.9-37
	C394.2,317.7,392.5,313.7,389.2,313.8z"/>
<path class="st2" d="M107.7,214.3l-5.2,0.2c-0.2,0-0.4,1.6-0.3,3.5l1.4,34.6c0.1,2.9,0.6,4.5,0.8,2.6l3.8-34.8
	C108.5,218.4,108.1,214.3,107.7,214.3z"/>
<path class="st2" d="M1052.7,869.3l-5.2,0.2c-0.2,0-0.4,1.6-0.3,3.5l1.4,34.6c0.1,2.9,0.6,4.5,0.8,2.6l3.8-34.8
	C1053.5,873.4,1053.1,869.3,1052.7,869.3z"/>
<path class="st2" d="M182.9,294.1l-5.2,0.2c-0.2,0-0.4,1.6-0.3,3.5l1.4,34.6c0.1,2.9,0.6,4.5,0.8,2.6l3.8-34.8
	C183.6,298.1,183.3,294.1,182.9,294.1z"/>
<path class="st2" d="M870.9,365.1l-5.2,0.2c-0.2,0-0.4,1.6-0.3,3.5l1.4,34.6c0.1,2.9,0.6,4.5,0.8,2.6l3.8-34.8
	C871.6,369.1,871.3,365.1,870.9,365.1z"/>
<path class="st2" d="M864.9,766.1l-5.2,0.2c-0.2,0-0.4,1.6-0.3,3.5l1.4,34.6c0.1,2.9,0.6,4.5,0.8,2.6l3.8-34.8
	C865.6,770.1,865.3,766.1,864.9,766.1z"/>
<path class="st2" d="M410.9,110.2v43.3c0,1.9,1.6,3.5,3.5,3.5h35.3c3,0,4.6-3.4,2.7-5.7L417.1,108
	C415.1,105.4,410.9,106.9,410.9,110.2z"/>
<path class="st2" d="M698,518.2v43.3c0,1.9,1.6,3.5,3.5,3.5h35.3c3,0,4.6-3.4,2.7-5.7L704.2,516C702.1,513.4,698,514.9,698,518.2z"
	/>
<g>
	<path class="st2" d="M244,808c0,0-190.9-137-103.5,0s36.8,0,36.8,0H244z"/>
</g>
<path class="st3" d="M-69.5-208.5"/>
<text transform="matrix(1 0 0 1 404.2792 298.9268)" class="st4 st5">Store Coming Soon</text>
<text transform="matrix(1 0 0 1 899.0574 448.2483)" class="st6 st4 st7"> </text>
<g>
	<text transform="matrix(1 0 0 1 412.6574 448.2483)" class="st6 st4 st7">Please send us an email if </text>
	<text transform="matrix(1 0 0 1 911.8574 448.2483)" class="st6 st4 st7"> </text>
</g>
<text transform="matrix(1 0 0 1 412.6574 592.2483)" class="st6 st4 st7">want your items to be displayed here</text>
</svg>
