<svg xmlns="http://www.w3.org/2000/svg" viewBox="0 0 508.99 268.86"><defs><style>.cls-1{fill:#098040;}.cls-2{fill:#517b38;}.cls-3{fill:#c49a6c;}</style></defs><g id="Layer_2" data-name="Layer 2"><g id="Layer_1-2" data-name="Layer 1"><path class="cls-1" d="M134,140.17l-6.77-10.65-2.36-3c-5.51-5.79-10.23-11.6-17.77-14.52l-2.39-1.13a3.21,3.21,0,0,1,1.14-6.1c10.53-.53,23.75,7.09,28.22,9.89a2.53,2.53,0,0,1,1.19,2.16v23A.68.68,0,0,1,134,140.17Z"/><path class="cls-2" d="M137.87,142.15V264.46a4.4,4.4,0,0,0,4.4,4.4h0a1.82,1.82,0,0,0,1.83-1.76L147.74,182c.66-11.1.63-52.53,0-63.63L144,10.34a5.6,5.6,0,0,0-5.63-5.44H5.38A5.38,5.38,0,0,0,0,10.28V61a2.72,2.72,0,0,0,4.81,1.76A59.2,59.2,0,0,1,18,51.1C30.45,42.85,45.3,38.91,60.28,38.91h68.63a9,9,0,0,1,9,9v94.28Z"/><path class="cls-2" d="M241.28,126.32c-.27.37-.5.71-.8,1.1a22.19,22.19,0,0,1-1.69,1.66,14.07,14.07,0,0,1-1.51,1.28l0,0a5.28,5.28,0,0,0-3.36-1.23.32.32,0,0,0-.24.13.16.16,0,0,0,0,.12.64.64,0,0,0,.06.18l.05.1a4.16,4.16,0,0,0,1.44,1.26,7.31,7.31,0,0,0,.76.46c-1.26.94-2.45,1.86-3.81,2.81a63.37,63.37,0,0,1-7.12,4.51l-.16-.2a5.14,5.14,0,0,0-.66-.66,5.26,5.26,0,0,0-3.37-1.24.31.31,0,0,0-.23.14.21.21,0,0,0,0,.12.85.85,0,0,0,.06.17l.06.1a3.93,3.93,0,0,0,1.43,1.26,6.55,6.55,0,0,0,.88.52,4.4,4.4,0,0,0,1,.27H224c-.45.22-.9.43-1.37.62a63,63,0,0,1-10.76,3.1c-8.31,1.9-15.17,3.49-20.89,1.88l-1.2-.36a6.84,6.84,0,0,1-1.86-.8,1.81,1.81,0,0,1-.76-1.09,3.78,3.78,0,0,1,.73-3A38.5,38.5,0,0,1,195.2,133a4.39,4.39,0,0,0-.26,1.8.36.36,0,0,0,.15.23.18.18,0,0,0,.13,0,1.22,1.22,0,0,0,.17-.07l.09-.06a4.16,4.16,0,0,0,1.21-1.48,7,7,0,0,0,.47-.9,4.48,4.48,0,0,0,.23-1,0,0,0,0,0,0,0,63.92,63.92,0,0,1,12.54-6.09,5,5,0,0,0-1.06,2.31.37.37,0,0,0,.1.25.14.14,0,0,0,.11,0,.58.58,0,0,0,.19,0l.11,0a4.09,4.09,0,0,0,1.49-1.18,5.35,5.35,0,0,0,.66-.78,4.16,4.16,0,0,0,.44-.9l.15-.41a59,59,0,0,1,11.1-2.44c1.75-.2,3.47-.32,5.15-.35a4.73,4.73,0,0,0-1,2.24.33.33,0,0,0,.1.25.13.13,0,0,0,.11,0,.52.52,0,0,0,.18,0l.11,0a4.07,4.07,0,0,0,1.5-1.19,6,6,0,0,0,.66-.77,2.78,2.78,0,0,0,.28-.54c1.08,0,2.15,0,3.19.12,2,.14,4,.38,6.05.51A2.36,2.36,0,0,1,241.28,126.32Z"/><path class="cls-3" d="M158.88,268.86h14a14,14,0,0,0,14-14.05V160.57l-.35-.54a35.68,35.68,0,0,1-1.12-37.78,9.94,9.94,0,0,0,1.47-5V49.92a5.78,5.78,0,0,1,5.78-5.79h74.79c3.49,0,7.95-2.35,9.71-5.34,5.6-9.56,17.48-18.51,28-25.3A4.79,4.79,0,0,0,304,4.9H157.11a4.73,4.73,0,0,0-4.76,4.95l0,.49,3.74,108c.63,11.1.66,52.53,0,63.63l-1.26,82.75A4,4,0,0,0,158.88,268.86Z"/><path class="cls-3" d="M295.3,164.41a25.63,25.63,0,0,0-12.19,9.48h0a41.81,41.81,0,0,0-4.41,8.63l-1,2.61a.63.63,0,0,1-1.12-.06c-4.72-10.73-7.06-21.54-8.41-33.8a26.49,26.49,0,0,1,0-5.7l.61-5.68a25.55,25.55,0,0,1,2.27-8.41c4.34-9,13.58-14.84,24.17-15.62a34.37,34.37,0,0,1,4.54,0,30,30,0,0,0,7.53-.33.89.89,0,0,1,1.07.94l-1.6,17.64a53.21,53.21,0,0,0-.18,7.78,84.74,84.74,0,0,0,.87,8.49s0,0,0,0c.07.42.13.84.21,1.25C307.71,151.67,303.42,161.7,295.3,164.41Z"/><path class="cls-3" d="M509,.17a51.74,51.74,0,0,1-2.23,5.57A58.22,58.22,0,0,1,462.33,38.8c-1.94.28-3.88.47-5.87.56l-2.5,0H401.3a95,95,0,0,0-34,6.46A93.52,93.52,0,0,0,345.6,57.81c-1.61,1.17-3.18,2.42-4.71,3.71a95.5,95.5,0,0,0-9,8.63c-1.2,1.33-2.37,2.68-3.49,4.08a91.27,91.27,0,0,0-10,15.1,16.9,16.9,0,0,1-8.44,7.73,34.52,34.52,0,0,1-12.19,2.56,32.11,32.11,0,0,1-3.25,0,28.74,28.74,0,0,0-6.16.25,33.53,33.53,0,0,0-9,2.78,30.43,30.43,0,0,0-8.75,6.25,1.6,1.6,0,0,1-2.73-1.37,128.88,128.88,0,0,1,20-49.83,121.85,121.85,0,0,1,28-29.55q3.15-2.36,6.44-4.48Q326,21.19,330,19.08c2.49-1.36,5-2.62,7.62-3.78,6.58-3,20.58-6.93,20.65-6.93a190.46,190.46,0,0,1,41.11-7Z"/><path class="cls-3" d="M498,170.19c0,.23-.12.46-.19.68a1,1,0,0,0,.19.15v97.45a.39.39,0,0,1-.39.39H395.06c-38.57-2-74-29.53-74-29.53a114.34,114.34,0,0,1-13.43-11.08A123.69,123.69,0,0,1,286,200.68a.61.61,0,0,1-.05-.12,21.16,21.16,0,0,1-.54-4A21.7,21.7,0,0,1,298,175.81a19.85,19.85,0,0,1,2.8-1,17.06,17.06,0,0,0,5.29-2.29,22.19,22.19,0,0,0,3-2.46,22.56,22.56,0,0,0,4.7-6.83.38.38,0,0,1,.72,0,92.29,92.29,0,0,0,23.84,38.87,95.88,95.88,0,0,0,10.7,9,94.19,94.19,0,0,0,38.46,16.31c1.85.34,3.73.61,5.63.84l1.91.22c2.46.23,4.94.38,7.46.43.66,0,1.34,0,2,0a97.14,97.14,0,0,0,11.38-.67h42.38a.38.38,0,0,0,.39-.39V161a.38.38,0,0,0-.39-.39H396.23c-17.85,0-30.41-18.82-22.27-34.71l.38-.73a10.46,10.46,0,0,1,9.29-5.38l113.23.2a.42.42,0,0,1,.39.33c.28,1.58.52,3.18.71,4.78v45.13Z"/><path class="cls-1" d="M336.86,89.69c-.42.19-.45.72,0,.82,1.31.27,3.93.49,5.27.61,2.81.25,6.8-.66,7.14.4s-3.6,2.7-3.76,2.79c-1.65.92-3.64.8-5.28,1.72-.7.39-1.86,1.41-1.08,1.55,5.88,1,8.47,1.36,14.55-.88a33.17,33.17,0,0,0,5.64-3c1.07-.64,8.37-3.76,10.21-3.34,2.11.49-.33-1.34-1.39-1.88-.26-.13-2-.7-2.22-.83-.42-.2-1.05-.16-1.52-.32a9.74,9.74,0,0,0-1.63-.37c-1.22-.21-2.32-.44-3.56-.62a32.63,32.63,0,0,0-6.93-.49,40.38,40.38,0,0,0-6.92,1.31A57.13,57.13,0,0,0,336.86,89.69Z"/><path class="cls-1" d="M318.44,154.9c-.4.21-.4.75.05.82,1.33.19,4,.26,5.3.29,2.82.08,6.75-1.07,7.16,0s-3.44,2.92-3.59,3c-1.59,1-3.59,1-5.17,2-.67.43-1.77,1.52-1,1.6,5.92.63,8.53.86,14.46-1.75a33.6,33.6,0,0,0,5.45-3.35c1-.71,8.13-4.26,10-3.95,2.13.36-.42-1.32-1.51-1.79-.26-.12-2-.58-2.27-.7s-1-.09-1.52-.23a10.46,10.46,0,0,0-1.66-.27c-1.23-.14-2.34-.3-3.59-.41a32.74,32.74,0,0,0-6.94-.06,39.38,39.38,0,0,0-6.84,1.72A58.48,58.48,0,0,0,318.44,154.9Z"/><path class="cls-1" d="M387.76,220.75a2.3,2.3,0,0,1-2.77,2.68c-.75-.14-1.5-.28-2.24-.44l-1.42-.32c-1-.24-2-.5-3-.77a2.49,2.49,0,0,1-1.57-1.35,24.7,24.7,0,0,0-18.16-13.72,25.87,25.87,0,0,0-7.73-.27,2.6,2.6,0,0,1-2-.6q-2.54-2.25-4.82-4.71a2.14,2.14,0,0,1,.86-3.55h0a34.8,34.8,0,0,1,16.71-1C375,199.19,385.06,209,387.76,220.75Z"/><path class="cls-1" d="M332.28,92.35l7-.36s4.06,0,1.35,1.35-10,2.41-10,2.41"/><path class="cls-1" d="M333.13,89.46a29.56,29.56,0,0,1-17.54,20.15,32.59,32.59,0,0,1-4.71,1.59c-.34.1-.69.18-1,.25a30.06,30.06,0,0,1-9.34.4,36,36,0,0,0-4.86-.11c-13.63.65-25.35,9.18-28.55,22.18a29.14,29.14,0,0,0-.84,7,1.09,1.09,0,0,1-1,1.08,1.45,1.45,0,0,1-.79-.11,1.7,1.7,0,0,1-.73-.79c-3.46-6.49-2.3-11.2-.9-16.91a27.87,27.87,0,0,1,3.86-8.77,29.49,29.49,0,0,1,12.66-10.59,33.66,33.66,0,0,1,9.1-2.57,29.45,29.45,0,0,1,6.16-.09,32.42,32.42,0,0,0,3.25.12,33.86,33.86,0,0,0,18.66-5.56,29.14,29.14,0,0,0,12.21-17.29c.07-.3.14-.6.2-.89a3.6,3.6,0,0,1,.77-1.58l.6-.69a1.86,1.86,0,0,1,3.22.93A30,30,0,0,1,333.13,89.46Z"/><path class="cls-1" d="M321.69,159.67A33.35,33.35,0,0,1,314,161.1a1.56,1.56,0,0,0-1.32.94,22.62,22.62,0,0,1-4.87,6.84,22.18,22.18,0,0,1-3,2.42,17.37,17.37,0,0,1-5.34,2.2,20.15,20.15,0,0,0-2.81.94,21.72,21.72,0,0,0-13,20.51,20.34,20.34,0,0,0,.39,3.59,3,3,0,0,0,.09.51c0,.23.1.46.15.69a.8.8,0,0,1-.86,1,.88.88,0,0,1-.56-.37,21.46,21.46,0,0,1-3.13-10s0,0,0,0a2,2,0,0,1,0-.49,2.43,2.43,0,0,1,0-.38,22,22,0,0,1,6.47-16.15,20.52,20.52,0,0,1,4.86-3.57,14.66,14.66,0,0,1,3.55-1.34c.63-.18,1.27-.38,1.89-.61a22,22,0,0,0,13.66-15.91,27.21,27.21,0,0,0,.45-2.87s0,0,0-.05a20.8,20.8,0,0,0,.11-2.62,23.14,23.14,0,0,0-.63-4.83.81.81,0,0,1,.87-1H311a.87.87,0,0,1,.55.38,22.86,22.86,0,0,1,2.59,16.83.49.49,0,0,0,.48.62l5.72,0S325.75,158.32,321.69,159.67Z"/><path class="cls-1" d="M326.5,17.53c-1.21.69-2.4,1.4-3.58,2.13a1.31,1.31,0,0,1-2-1.09c-.07-5.69.13-11.63,1-15.29,2.14-8.87,4.88,3.06,4.88,3.06L328.18,14A3.37,3.37,0,0,1,326.5,17.53Z"/></g></g></svg>