<?xml version="1.0" encoding="utf-8"?>
<!-- Generator: Adobe Illustrator 25.4.1, SVG Export Plug-In . SVG Version: 6.00 Build 0)  -->
<svg version="1.1" id="Layer_1" xmlns="http://www.w3.org/2000/svg" xmlns:xlink="http://www.w3.org/1999/xlink" x="0px" y="0px"
	 viewBox="0 0 1920 1080" style="enable-background:new 0 0 1920 1080;" xml:space="preserve">
<style type="text/css">
	.st0{fill:#006837;}
	.st1{fill:#8CC63F;}
	.st2{fill:#FFFFFF;stroke:#000000;stroke-miterlimit:10;}
</style>
<path class="st0" d="M1554.3,571c-0.6-50.7,12.5-101.9,33.9-151.6s51.3-97.8,84.3-142.2c91.1-122.7,206.1-217.5,234.2-239.9
	c1.2-0.9,2.7,0.5,1.9,1.8l-352,532.6C1556,572.8,1554.3,572.3,1554.3,571z"/>
<path class="st1" d="M162.4,389.9v43.3c0,1.9,1.6,3.5,3.5,3.5h35.3c3,0,4.6-3.4,2.7-5.7l-35.3-43.3
	C166.5,385.2,162.4,386.6,162.4,389.9z"/>
<path class="st1" d="M608,700.2v43.3c0,1.9,1.6,3.5,3.5,3.5h35.3c3,0,4.6-3.4,2.7-5.7L614.2,698C612.1,695.4,608,696.9,608,700.2z"
	/>
<path class="st1" d="M312.7,558.7V602c0,1.9,1.6,3.5,3.5,3.5h35.3c3,0,4.6-3.4,2.7-5.7l-35.3-43.3
	C316.8,553.9,312.7,555.4,312.7,558.7z"/>
<path class="st1" d="M410.1,330.6l-43.3,1.7c-1.9,0.1-3.4,1.7-3.4,3.6l1.4,35.3c0.1,3,3.6,4.4,5.8,2.5l41.9-37
	C415.1,334.5,413.4,330.5,410.1,330.6z"/>
<path class="st1" d="M107.7,214.3l-5.2,0.2c-0.2,0-0.4,1.6-0.3,3.5l1.4,34.6c0.1,2.9,0.6,4.5,0.8,2.6l3.8-34.8
	C108.5,218.4,108.1,214.3,107.7,214.3z"/>
<path class="st1" d="M1052.7,869.3l-5.2,0.2c-0.2,0-0.4,1.6-0.3,3.5l1.4,34.6c0.1,2.9,0.6,4.5,0.8,2.6l3.8-34.8
	C1053.5,873.4,1053.1,869.3,1052.7,869.3z"/>
<path class="st1" d="M182.9,294.1l-5.2,0.2c-0.2,0-0.4,1.6-0.3,3.5l1.4,34.6c0.1,2.9,0.6,4.5,0.8,2.6l3.8-34.8
	C183.6,298.1,183.3,294.1,182.9,294.1z"/>
<path class="st1" d="M966.9,379.1l-5.2,0.2c-0.2,0-0.4,1.6-0.3,3.5l1.4,34.6c0.1,2.9,0.6,4.5,0.8,2.6l3.8-34.8
	C967.6,383.1,967.3,379.1,966.9,379.1z"/>
<path class="st1" d="M410.9,110.2v43.3c0,1.9,1.6,3.5,3.5,3.5h35.3c3,0,4.6-3.4,2.7-5.7L417.1,108
	C415.1,105.4,410.9,106.9,410.9,110.2z"/>
<path class="st1" d="M744,552.2v43.3c0,1.9,1.6,3.5,3.5,3.5h35.3c3,0,4.6-3.4,2.7-5.7L750.2,550C748.1,547.4,744,548.9,744,552.2z"
	/>
<path class="st1" d="M897.6,563.5c2.4,1,5.1,1.5,7.9,1.5c9.1,0,16.9-5.7,20-13.7C932.3,570.3,963.8,663.2,897.6,563.5z"/>
<path class="st1" d="M926.5,548c0.3-1.5,0.5-3,0.5-4.5c0-11.9-9.6-21.5-21.5-21.5c-11.5,0-20.9,9-21.5,20.4
	c-78.6-127.6,107,5.6,107,5.6H926.5z"/>
<path class="st2" d="M-69.5-208.5"/>
<g>
	<path class="st1" d="M836.3,811.9c0.4,0.6,1.2,0.8,1.8,0.4c0.1-0.1,0.3-0.2,0.4-0.4l8-12c0.4-0.6,0.2-1.4-0.4-1.8
		c-0.2-0.1-0.5-0.2-0.7-0.2h-0.3l5.4-8.6c0.4-0.6,0.2-1.4-0.4-1.8c-0.2-0.1-0.5-0.2-0.7-0.2h-0.5l4.4-8.7c0.3-0.7,0.1-1.5-0.6-1.8
		c-0.2-0.1-0.4-0.1-0.6-0.1h-12V770h-5.3v6.7h-12c-0.7,0-1.3,0.6-1.3,1.3c0,0.2,0,0.4,0.1,0.6l4.4,8.7h-0.5c-0.7,0-1.3,0.6-1.3,1.3
		c0,0.2,0.1,0.5,0.2,0.7l5.4,8.6h-0.3c-0.7,0-1.3,0.6-1.3,1.3c0,0.3,0.1,0.5,0.2,0.7C828.3,800,836.3,811.9,836.3,811.9z"/>
</g>
<g>
	<path class="st1" d="M176.8,665.9c-1.4-2.1-4.2-2.6-6.2-1.2c-0.5,0.3-0.9,0.8-1.2,1.2l-27,40.5c-1.4,2.1-0.8,4.9,1.3,6.2
		c0.7,0.5,1.6,0.8,2.5,0.8h0.9l-18.2,29.1c-1.3,2.1-0.7,4.9,1.4,6.2c0.7,0.4,1.5,0.7,2.4,0.7h1.7l-14.7,29.5c-1.1,2.2-0.2,4.9,2,6
		c0.6,0.3,1.3,0.5,2,0.5H164v22.5h18v-22.5h40.5c2.5,0,4.5-2,4.5-4.5c0-0.7-0.2-1.4-0.5-2l-14.7-29.5h1.7c2.5,0,4.5-2,4.5-4.5
		c0-0.8-0.2-1.7-0.7-2.4l-18.2-29.1h0.9c2.5,0,4.5-2,4.5-4.5c0-0.9-0.3-1.8-0.8-2.5C203.8,706.4,176.8,665.9,176.8,665.9z"/>
</g>
<g>
	<path class="st1" d="M1913,1044.9c0,3-2.7,5.5-6,5.5h-54v17.9c0,2.6-1.1,5-2.8,6.8c-1.7,1.7-4.1,2.8-6.8,2.8
		c-8,0-14.4-6.5-14.4-14.4v-13h-54c-0.9,0-1.8-0.2-2.7-0.6c-3-1.4-4.2-4.7-2.7-7.4l19.7-36h-2.3c-1.1,0-2.2-0.3-3.2-0.8
		c-2.8-1.6-3.7-5-1.9-7.6l24.3-35.5h-1.2c-1.2,0-2.3-0.3-3.3-0.9c-2.8-1.7-3.5-5.1-1.7-7.6l13.3-18.3c1.1,4.3,5,7.4,9.7,7.4
		c5.5,0,10-4.5,10-10c0-5.5-4.5-10-10-10c-0.2,0-0.3,0-0.5,0l13.5-18.6c0.4-0.6,1-1.1,1.7-1.5c2.8-1.7,6.5-1,8.3,1.5l36,49.4
		c0.7,0.9,1,2,1,3c0,3-2.7,5.5-6,5.5h-1.2l16.6,24.3c-7.7,2.2-13.4,9.3-13.4,17.8c0,10.2,8.3,18.5,18.5,18.5c1.4,0,2.7-0.2,4-0.5
		l10.8,19.8C1912.8,1043.2,1913,1044,1913,1044.9z"/>
</g>
</svg>
