<?xml version="1.0" encoding="utf-8"?>
<!-- Generator: Adobe Illustrator 25.4.1, SVG Export Plug-In . SVG Version: 6.00 Build 0)  -->
<svg version="1.1" id="Layer_1" xmlns="http://www.w3.org/2000/svg" xmlns:xlink="http://www.w3.org/1999/xlink" x="0px" y="0px"
	 viewBox="0 0 1920 1080" style="enable-background:new 0 0 1920 1080;" xml:space="preserve">
<style type="text/css">
	.st0{fill:#8CC63F;}
	.st1{fill:#FFFFFF;stroke:#000000;stroke-miterlimit:10;}
</style>
<path class="st0" d="M162.4,470.7v32.8c0,1.5,1.2,2.7,2.7,2.7h26.8c2.2,0,3.5-2.6,2.1-4.3l-26.8-32.8
	C165.5,467.1,162.4,468.2,162.4,470.7z"/>
<path class="st0" d="M438.1,688.5v32.8c0,1.5,1.2,2.7,2.7,2.7h26.8c2.2,0,3.5-2.6,2.1-4.3l-26.8-32.8
	C441.2,684.9,438.1,686,438.1,688.5z"/>
<path class="st0" d="M1052.7,869.3l-5.2,0.2c-0.2,0-0.4,1.6-0.3,3.5l1.4,34.6c0.1,2.9,0.6,4.5,0.8,2.6l3.8-34.8
	C1053.5,873.4,1053.1,869.3,1052.7,869.3z"/>
<path class="st0" d="M1505.7,726.3l-5.2,0.2c-0.2,0-0.4,1.6-0.3,3.5l1.4,34.6c0.1,2.9,0.6,4.5,0.8,2.6l3.8-34.8
	C1506.5,730.4,1506.1,726.3,1505.7,726.3z"/>
<path class="st0" d="M470.9,933.1l-5.2,0.2c-0.2,0-0.4,1.6-0.3,3.5l1.4,34.6c0.1,2.9,0.6,4.5,0.8,2.6l3.8-34.8
	C471.6,937.1,471.3,933.1,470.9,933.1z"/>
<path class="st0" d="M350.8,258.7v32.8c0,1.5,1.2,2.7,2.7,2.7h26.8c2.2,0,3.5-2.6,2.1-4.3L355.5,257
	C354,255,350.8,256.2,350.8,258.7z"/>
<path class="st0" d="M960.4,549v32.8c0,1.5,1.2,2.7,2.7,2.7h26.8c2.2,0,3.5-2.6,2.1-4.3l-26.8-32.8
	C963.5,545.4,960.4,546.5,960.4,549z"/>
<path class="st1" d="M-69.5-208.5"/>
<g>
	<path class="st0" d="M522.7,593.6c-0.4-0.6-1.3-0.8-1.9-0.4c-0.2,0.1-0.3,0.2-0.4,0.4l-8.3,12.5c-0.4,0.6-0.3,1.5,0.4,1.9
		c0.2,0.2,0.5,0.2,0.8,0.2h0.3l-5.6,9c-0.4,0.7-0.2,1.5,0.4,1.9c0.2,0.1,0.5,0.2,0.7,0.2h0.5l-4.6,9.1c-0.3,0.7-0.1,1.5,0.6,1.9
		c0.2,0.1,0.4,0.1,0.6,0.1h12.5v6.9h5.6v-6.9h12.5c0.8,0,1.4-0.6,1.4-1.4c0-0.2-0.1-0.4-0.1-0.6l-4.5-9.1h0.5c0.8,0,1.4-0.6,1.4-1.4
		c0-0.3-0.1-0.5-0.2-0.7l-5.6-9h0.3c0.8,0,1.4-0.6,1.4-1.4c0-0.3-0.1-0.5-0.2-0.8C531.1,606.1,522.7,593.6,522.7,593.6z"/>
</g>
<g>
	<path class="st0" d="M139.7,868.6c-0.4-0.6-1.3-0.8-1.9-0.4c-0.2,0.1-0.3,0.2-0.4,0.4l-8.3,12.5c-0.4,0.6-0.3,1.5,0.4,1.9
		c0.2,0.2,0.5,0.2,0.8,0.2h0.3l-5.6,9c-0.4,0.7-0.2,1.5,0.4,1.9c0.2,0.1,0.5,0.2,0.7,0.2h0.5l-4.6,9.1c-0.3,0.7-0.1,1.5,0.6,1.9
		c0.2,0.1,0.4,0.1,0.6,0.1h12.5V934h5.6v-28.5h12.5c0.8,0,1.4-0.6,1.4-1.4c0-0.2-0.1-0.4-0.1-0.6l-4.5-9.1h0.5
		c0.8,0,1.4-0.6,1.4-1.4c0-0.3-0.1-0.5-0.2-0.7l-5.6-9h0.3c0.8,0,1.4-0.6,1.4-1.4c0-0.3-0.1-0.5-0.2-0.8
		C148.1,881.1,139.7,868.6,139.7,868.6z"/>
</g>
<g>
	<path class="st0" d="M226.7,290.6c-0.4-0.6-1.3-0.8-1.9-0.4c-0.2,0.1-0.3,0.2-0.4,0.4l-8.3,12.5c-0.4,0.6-0.3,1.5,0.4,1.9
		c0.2,0.2,0.5,0.2,0.8,0.2h0.3l-5.6,9c-0.4,0.7-0.2,1.5,0.4,1.9c0.2,0.1,0.5,0.2,0.7,0.2h0.5l-4.6,9.1c-0.3,0.7-0.1,1.5,0.6,1.9
		c0.2,0.1,0.4,0.1,0.6,0.1h12.5V356h5.6v-28.5h12.5c0.8,0,1.4-0.6,1.4-1.4c0-0.2-0.1-0.4-0.1-0.6l-4.5-9.1h0.5
		c0.8,0,1.4-0.6,1.4-1.4c0-0.3-0.1-0.5-0.2-0.7l-5.6-9h0.3c0.8,0,1.4-0.6,1.4-1.4c0-0.3-0.1-0.5-0.2-0.8
		C235.1,303.1,226.7,290.6,226.7,290.6z"/>
</g>
<g>
	<path class="st0" d="M1235.7,708.6c-0.4-0.6-1.3-0.8-1.9-0.4c-0.2,0.1-0.3,0.2-0.4,0.4l-8.3,12.5c-0.4,0.6-0.3,1.5,0.4,1.9
		c0.2,0.2,0.5,0.2,0.8,0.2h0.3l-5.6,9c-0.4,0.7-0.2,1.5,0.4,1.9c0.2,0.1,0.5,0.2,0.7,0.2h0.5l-4.6,9.1c-0.3,0.7-0.1,1.5,0.6,1.9
		c0.2,0.1,0.4,0.1,0.6,0.1h12.5V774h5.6v-28.5h12.5c0.8,0,1.4-0.6,1.4-1.4c0-0.2-0.1-0.4-0.1-0.6l-4.5-9.1h0.5
		c0.8,0,1.4-0.6,1.4-1.4c0-0.3-0.1-0.5-0.2-0.7l-5.6-9h0.3c0.8,0,1.4-0.6,1.4-1.4c0-0.3-0.1-0.5-0.2-0.8
		C1244.1,721.1,1235.7,708.6,1235.7,708.6z"/>
</g>
<g>
	<path class="st0" d="M1360.7,435.6c-0.4-0.6-1.3-0.8-1.9-0.4c-0.2,0.1-0.3,0.2-0.4,0.4l-8.3,12.5c-0.4,0.6-0.3,1.5,0.4,1.9
		c0.2,0.2,0.5,0.2,0.8,0.2h0.3l-5.6,9c-0.4,0.7-0.2,1.5,0.4,1.9c0.2,0.1,0.5,0.2,0.7,0.2h0.5l-4.6,9.1c-0.3,0.7-0.1,1.5,0.6,1.9
		c0.2,0.1,0.4,0.1,0.6,0.1h12.5V501h5.6v-28.5h12.5c0.8,0,1.4-0.6,1.4-1.4c0-0.2-0.1-0.4-0.1-0.6l-4.5-9.1h0.5
		c0.8,0,1.4-0.6,1.4-1.4c0-0.3-0.1-0.5-0.2-0.7l-5.6-9h0.3c0.8,0,1.4-0.6,1.4-1.4c0-0.3-0.1-0.5-0.2-0.8
		C1369.1,448.1,1360.7,435.6,1360.7,435.6z"/>
</g>
<g>
	<path class="st0" d="M875.6,289.7c0.2-0.7-0.2-1.5-0.9-1.7c-0.2-0.1-0.4-0.1-0.5-0.1l-15,1.3c-0.8,0.1-1.3,0.7-1.3,1.5
		c0,0.3,0.1,0.5,0.3,0.7l0.2,0.2l-10.5,1.2c-0.8,0.1-1.3,0.8-1.2,1.5c0,0.3,0.1,0.5,0.3,0.7l0.3,0.4l-10,2.1
		c-0.8,0.2-1.2,0.9-1.1,1.6c0,0.2,0.1,0.4,0.3,0.6l7.8,9.8l-22.2,17.8l3.5,4.3l22.2-17.8l7.8,9.8c0.5,0.6,1.4,0.7,2,0.2
		c0.2-0.1,0.3-0.3,0.4-0.5l4.3-9.2l0.3,0.4c0.5,0.6,1.4,0.7,2,0.2c0.2-0.2,0.4-0.4,0.4-0.6l3.5-10l0.2,0.2c0.5,0.6,1.4,0.7,2,0.2
		c0.2-0.2,0.4-0.4,0.5-0.7C871,304,875.6,289.7,875.6,289.7z"/>
</g>
<g>
	<path class="st0" d="M1277.7,188.6c-0.4-0.6-1.3-0.8-1.9-0.4c-0.2,0.1-0.3,0.2-0.4,0.4l-8.3,12.5c-0.4,0.6-0.3,1.5,0.4,1.9
		c0.2,0.2,0.5,0.2,0.8,0.2h0.3l-5.6,9c-0.4,0.7-0.2,1.5,0.4,1.9c0.2,0.1,0.5,0.2,0.7,0.2h0.5l-4.6,9.1c-0.3,0.7-0.1,1.5,0.6,1.9
		c0.2,0.1,0.4,0.1,0.6,0.1h12.5V254h5.6v-28.5h12.5c0.8,0,1.4-0.6,1.4-1.4c0-0.2-0.1-0.4-0.1-0.6l-4.5-9.1h0.5
		c0.8,0,1.4-0.6,1.4-1.4c0-0.3-0.1-0.5-0.2-0.7l-5.6-9h0.3c0.8,0,1.4-0.6,1.4-1.4c0-0.3-0.1-0.5-0.2-0.8
		C1286.1,201.1,1277.7,188.6,1277.7,188.6z"/>
</g>
<g>
	<path class="st0" d="M1804.7,542.6c-0.4-0.6-1.3-0.8-1.9-0.4c-0.2,0.1-0.3,0.2-0.4,0.4l-8.3,12.5c-0.4,0.6-0.3,1.5,0.4,1.9
		c0.2,0.2,0.5,0.2,0.8,0.2h0.3l-5.6,9c-0.4,0.7-0.2,1.5,0.4,1.9c0.2,0.1,0.5,0.2,0.7,0.2h0.5l-4.6,9.1c-0.3,0.7-0.1,1.5,0.6,1.9
		c0.2,0.1,0.4,0.1,0.6,0.1h12.5V608h5.6v-28.5h12.5c0.8,0,1.4-0.6,1.4-1.4c0-0.2-0.1-0.4-0.1-0.6l-4.5-9.1h0.5
		c0.8,0,1.4-0.6,1.4-1.4c0-0.3-0.1-0.5-0.2-0.7l-5.6-9h0.3c0.8,0,1.4-0.6,1.4-1.4c0-0.3-0.1-0.5-0.2-0.8
		C1813.1,555.1,1804.7,542.6,1804.7,542.6z"/>
</g>
</svg>
