<svg xmlns="http://www.w3.org/2000/svg" viewBox="0 0 408 408"><defs><style>.cls-1{fill:#b0d9ad;}.cls-2{fill:#098040;}.cls-3{fill:#517b38;}.cls-4{fill:#c49a6c;}</style></defs><g id="Layer_2" data-name="Layer 2"><g id="Layer_1-2" data-name="Layer 1"><rect class="cls-1" width="408" height="408"/><path class="cls-2" d="M116.42,208.17l-4.93-7.74-1.71-2.18c-4-4.21-7.44-8.43-12.92-10.55l-1.73-.83a2.33,2.33,0,0,1,.83-4.43c7.65-.38,17.26,5.15,20.51,7.19a1.85,1.85,0,0,1,.86,1.57v16.71A.49.49,0,0,1,116.42,208.17Z"/><path class="cls-3" d="M119.23,209.61v88.9a3.2,3.2,0,0,0,3.2,3.2h0a1.33,1.33,0,0,0,1.33-1.28l2.65-61.85c.48-8.07.45-38.18,0-46.25l-2.72-78.52a4.08,4.08,0,0,0-4.09-4H22.93A3.91,3.91,0,0,0,19,113.76v36.85a2,2,0,0,0,3.5,1.28,42.91,42.91,0,0,1,9.55-8.46,55.7,55.7,0,0,1,30.76-8.86h49.89a6.51,6.51,0,0,1,6.51,6.51v68.53Z"/><path class="cls-3" d="M194.4,198.11c-.2.26-.37.51-.59.79a15.67,15.67,0,0,1-1.23,1.21,10.2,10.2,0,0,1-1.09.93h0a3.82,3.82,0,0,0-2.45-.9.23.23,0,0,0-.17.1.19.19,0,0,0,0,.08.5.5,0,0,0,0,.13l0,.07a3,3,0,0,0,1.05.92,4.45,4.45,0,0,0,.55.33c-.92.69-1.78,1.36-2.76,2.05a47,47,0,0,1-5.18,3.28l-.12-.15a3.63,3.63,0,0,0-.48-.48,3.8,3.8,0,0,0-2.45-.9.25.25,0,0,0-.17.1.13.13,0,0,0,0,.09.28.28,0,0,0,0,.12l0,.08a2.89,2.89,0,0,0,1,.91,4.68,4.68,0,0,0,.64.38,3.58,3.58,0,0,0,.71.2h.05l-1,.45a45.86,45.86,0,0,1-7.82,2.25c-6,1.37-11,2.54-15.19,1.36l-.87-.26a5.05,5.05,0,0,1-1.35-.58,1.31,1.31,0,0,1-.55-.79,2.7,2.7,0,0,1,.53-2.17A28.28,28.28,0,0,1,160.9,203a3.16,3.16,0,0,0-.19,1.31.26.26,0,0,0,.11.16.1.1,0,0,0,.09,0l.13-.05.07,0a3,3,0,0,0,.87-1.08,4.66,4.66,0,0,0,.35-.66,3,3,0,0,0,.16-.71s0,0,0,0a46.34,46.34,0,0,1,9.11-4.42,3.58,3.58,0,0,0-.77,1.67.22.22,0,0,0,.07.19.1.1,0,0,0,.08,0,.28.28,0,0,0,.13,0l.08,0a3,3,0,0,0,1.09-.86,3.72,3.72,0,0,0,.48-.57,3.56,3.56,0,0,0,.32-.65l.11-.3a42.54,42.54,0,0,1,8.07-1.77,37.14,37.14,0,0,1,3.74-.26,3.54,3.54,0,0,0-.74,1.63.24.24,0,0,0,.07.18.1.1,0,0,0,.08,0l.13,0,.09,0a3,3,0,0,0,1.08-.86,4.19,4.19,0,0,0,.48-.56,1.86,1.86,0,0,0,.21-.39c.78,0,1.56,0,2.31.09,1.45.1,2.91.27,4.4.36A1.73,1.73,0,0,1,194.4,198.11Z"/><path class="cls-4" d="M134.5,301.71h10.16a10.22,10.22,0,0,0,10.22-10.21V223l-.26-.39a25.92,25.92,0,0,1-.81-27.46,7.31,7.31,0,0,0,1.07-3.66V142.57a4.2,4.2,0,0,1,4.2-4.2h54.35a9.09,9.09,0,0,0,7.06-3.89c4.07-6.94,12.71-13.45,20.36-18.39a3.47,3.47,0,0,0-.84-6.24H133.21a3.45,3.45,0,0,0-3.46,3.6l0,.36,2.72,78.52c.45,8.07.48,38.18,0,46.25l-.92,60.15A2.94,2.94,0,0,0,134.5,301.71Z"/><path class="cls-4" d="M233.65,225.79a18.68,18.68,0,0,0-8.85,6.89h0a30.92,30.92,0,0,0-3.21,6.27l-.7,1.9a.46.46,0,0,1-.82,0c-3.43-7.8-5.13-15.65-6.11-24.56a19.19,19.19,0,0,1,0-4.15l.45-4.12a18.85,18.85,0,0,1,1.65-6.12c3.16-6.54,9.87-10.79,17.56-11.35a26.09,26.09,0,0,1,3.31,0,21.71,21.71,0,0,0,5.47-.23.64.64,0,0,1,.78.68L242,203.76a39.49,39.49,0,0,0-.13,5.65,59.39,59.39,0,0,0,.64,6.17s0,0,0,0c0,.31.09.61.15.91C242.68,216.53,239.56,223.82,233.65,225.79Z"/><path class="cls-4" d="M389,106.41a37.56,37.56,0,0,1-1.62,4,42.32,42.32,0,0,1-32.3,24,39.84,39.84,0,0,1-4.27.4l-1.81,0H310.71a69.22,69.22,0,0,0-24.73,4.7,68,68,0,0,0-15.76,8.67c-1.17.86-2.31,1.77-3.43,2.7a69.35,69.35,0,0,0-6.55,6.28c-.88,1-1.72,1.95-2.54,3a66.76,66.76,0,0,0-7.27,11,12.25,12.25,0,0,1-6.13,5.62,25.31,25.31,0,0,1-8.86,1.86,23.5,23.5,0,0,1-2.37,0,20.82,20.82,0,0,0-4.47.18,24.38,24.38,0,0,0-6.57,2,22,22,0,0,0-6.35,4.54,1.16,1.16,0,0,1-2-1,93.68,93.68,0,0,1,14.54-36.22,88.64,88.64,0,0,1,20.37-21.48q2.29-1.71,4.68-3.26,2.72-1.77,5.56-3.31t5.54-2.74a145.86,145.86,0,0,1,15-5,138.48,138.48,0,0,1,29.88-5.12Z"/><path class="cls-4" d="M381,230c0,.17-.09.34-.14.49l.14.11v70.84a.29.29,0,0,1-.28.28H306.17c-28-1.48-53.79-21.47-53.79-21.47a83.1,83.1,0,0,1-9.76-8.05,89.66,89.66,0,0,1-15.73-20,.19.19,0,0,1,0-.09,15.45,15.45,0,0,1-.39-2.92,15.76,15.76,0,0,1,9.18-15.06,13.39,13.39,0,0,1,2-.73,12.58,12.58,0,0,0,3.85-1.67,16,16,0,0,0,5.59-6.75.28.28,0,0,1,.53,0,67,67,0,0,0,3.78,9.57A67.76,67.76,0,0,0,265,253.2a69.66,69.66,0,0,0,7.78,6.53,68.6,68.6,0,0,0,27.95,11.85c1.35.25,2.72.45,4.09.61l1.39.16c1.79.17,3.59.28,5.42.32l1.47,0a70.5,70.5,0,0,0,8.27-.49h30.8a.28.28,0,0,0,.29-.28V223.28a.28.28,0,0,0-.29-.28H307c-13,0-22.1-13.68-16.19-25.23l.28-.53a7.58,7.58,0,0,1,6.75-3.91l82.3.15a.28.28,0,0,1,.28.23c.21,1.15.38,2.31.52,3.48V230Z"/><path class="cls-2" d="M263.87,171.48c-.31.13-.33.52,0,.59.95.2,2.85.36,3.83.45,2,.18,4.94-.48,5.19.29s-2.62,2-2.74,2c-1.19.68-2.64.59-3.84,1.26-.5.28-1.35,1-.78,1.12,4.27.71,6.16,1,10.57-.64a23.1,23.1,0,0,0,4.1-2.19c.79-.47,6.09-2.73,7.43-2.43,1.53.35-.24-1-1-1.36-.18-.1-1.41-.51-1.61-.61s-.76-.11-1.1-.23a6.92,6.92,0,0,0-1.19-.27c-.88-.15-1.68-.32-2.58-.45a23.71,23.71,0,0,0-5-.36,29,29,0,0,0-5,1A40.43,40.43,0,0,0,263.87,171.48Z"/><path class="cls-2" d="M250.48,218.88c-.3.15-.29.54,0,.59,1,.14,2.87.19,3.85.22,2.05.05,4.9-.78,5.2,0s-2.5,2.12-2.61,2.19c-1.16.74-2.61.74-3.76,1.48-.48.32-1.28,1.11-.71,1.17,4.3.45,6.2.62,10.51-1.28a23.78,23.78,0,0,0,4-2.43c.76-.52,5.91-3.1,7.27-2.87,1.55.26-.3-1-1.1-1.31-.19-.08-1.44-.42-1.64-.5s-.77-.07-1.12-.17a8.34,8.34,0,0,0-1.2-.2c-.89-.09-1.7-.21-2.61-.29a23.5,23.5,0,0,0-5,0,29,29,0,0,0-5,1.26A40.62,40.62,0,0,0,250.48,218.88Z"/><path class="cls-2" d="M300.86,266.74a1.67,1.67,0,0,1-2,1.95l-1.63-.32c-.34-.08-.69-.15-1-.24-.74-.17-1.47-.35-2.2-.55a1.8,1.8,0,0,1-1.14-1,18,18,0,0,0-13.21-10,19,19,0,0,0-5.62-.19,1.91,1.91,0,0,1-1.48-.44q-1.85-1.63-3.51-3.42a1.56,1.56,0,0,1,.63-2.58h0a25.21,25.21,0,0,1,12.14-.71C291.61,251.07,298.9,258.18,300.86,266.74Z"/><path class="cls-2" d="M260.53,173.41l5.1-.26s2.95,0,1,1-7.27,1.75-7.27,1.75"/><path class="cls-2" d="M261.15,171.31A21.47,21.47,0,0,1,248.41,186a25.11,25.11,0,0,1-3.43,1.15c-.24.07-.5.14-.75.19a21.71,21.71,0,0,1-6.79.28,27.84,27.84,0,0,0-3.53-.07c-9.9.47-18.42,6.67-20.75,16.12a20.76,20.76,0,0,0-.61,5.11.8.8,0,0,1-.71.79,1,1,0,0,1-.57-.08,1.2,1.2,0,0,1-.53-.58c-2.51-4.71-1.67-8.14-.65-12.29a20.1,20.1,0,0,1,2.8-6.37,21.39,21.39,0,0,1,9.21-7.7,24.27,24.27,0,0,1,6.61-1.86,20.93,20.93,0,0,1,4.48-.07,23.38,23.38,0,0,0,2.36.09,24.62,24.62,0,0,0,13.56-4A21.12,21.12,0,0,0,258,164.06c.06-.22.11-.43.15-.65a2.63,2.63,0,0,1,.56-1.15c.15-.16.29-.33.44-.5a1.35,1.35,0,0,1,2.34.68A21.8,21.8,0,0,1,261.15,171.31Z"/><path class="cls-2" d="M252.84,222.35a24.29,24.29,0,0,1-5.6,1,1.15,1.15,0,0,0-1,.68,16.58,16.58,0,0,1-3.54,5,15.66,15.66,0,0,1-2.21,1.76,12.36,12.36,0,0,1-3.87,1.59,16.46,16.46,0,0,0-2,.69A15.81,15.81,0,0,0,225.17,248a15.11,15.11,0,0,0,.29,2.61,2.66,2.66,0,0,0,.07.37c0,.17.07.33.11.5a.59.59,0,0,1-.63.73.63.63,0,0,1-.41-.27,15.52,15.52,0,0,1-2.27-7.28s0,0,0,0a1.37,1.37,0,0,1,0-.35,2.64,2.64,0,0,1,0-.28,16,16,0,0,1,4.7-11.74,15.28,15.28,0,0,1,3.54-2.59,10.82,10.82,0,0,1,2.57-1,13,13,0,0,0,1.38-.44,16,16,0,0,0,9.93-11.56,18.16,18.16,0,0,0,.32-2.09s0,0,0,0a13.36,13.36,0,0,0,.08-1.9,16.77,16.77,0,0,0-.45-3.51.59.59,0,0,1,.63-.73h.08a.62.62,0,0,1,.4.28,16.11,16.11,0,0,1,2.31,8.06,15.93,15.93,0,0,1-.43,4.17.36.36,0,0,0,.35.45l4.16,0S255.79,221.36,252.84,222.35Z"/><path class="cls-2" d="M256.34,119c-.88.5-1.75,1-2.61,1.55a1,1,0,0,1-1.46-.79,51.56,51.56,0,0,1,.75-11.12c1.55-6.44,3.55,2.23,3.55,2.23l1,5.57A2.47,2.47,0,0,1,256.34,119Z"/></g></g></svg>